<?xml version="1.0" encoding="iso-8859-1"?>
<!-- Generator: Adobe Illustrator 19.0.0, SVG Export Plug-In . SVG Version: 6.00 Build 0)  -->
<svg version="1.1" id="Layer_1" xmlns="http://www.w3.org/2000/svg" xmlns:xlink="http://www.w3.org/1999/xlink" x="0px" y="0px"
	 viewBox="0 0 485 485" style="enable-background:new 0 0 485 485;" xml:space="preserve">
<g>
	<g>
		<path d="M340.4,360.552c-8.931-4.704-30.922-17.164-40.4-26.105v-24.304c30.386-17.372,51.163-48.542,57.804-86.695
			C375.017,218.519,390,202.361,390,187.5c0-15.043-11.308-25.026-30-27.094V81.503l-0.261-0.962
			c-0.226-0.833-5.722-20.638-22.939-40.459C320.916,21.796,291.662,0,242.5,0s-78.416,21.796-94.3,40.082
			c-17.218,19.821-22.714,39.625-22.939,40.459L125,81.503v78.903c-18.692,2.068-30,12.051-30,27.094
			c0,14.861,14.983,31.019,32.196,35.948c6.647,38.167,27.428,69.335,57.804,86.695v24.303
			c-9.483,8.947-31.496,21.417-40.417,26.114c-97.482,31.626-99.542,89.368-99.582,91.816L45,485h395v-32.541
			C439.986,449.996,438.545,391.89,340.4,360.552z M360,175.482c13.367,1.874,15,8.786,15,12.018c0,6.126-6.627,14.467-15.266,19.07
			C359.899,203.606,360,175.482,360,175.482z M110,187.5c0-3.232,1.633-10.144,15-12.018c0,0,0.101,28.125,0.266,31.088
			C116.627,201.967,110,193.626,110,187.5z M140,83.597c1.169-3.691,6.455-18.634,19.524-33.679C179.651,26.748,207.568,15,242.5,15
			c34.677,0,62.452,11.586,82.556,34.438C338.326,64.523,343.805,79.885,345,83.61v15.158c-5.255-2.78-12.09-5.763-20.347-8.037
			c-18.118-4.988-46.88-7.431-82.153,8.498c-35.272-15.929-64.035-13.487-82.153-8.498c-8.257,2.274-15.092,5.256-20.347,8.037
			V83.597z M140,116.253c4.057-2.792,12.705-7.968,25.055-11.257c23.375-6.224,48.342-3.106,74.209,9.269l3.236,1.548l3.236-1.548
			c25.868-12.374,50.835-15.494,74.209-9.269c12.35,3.289,20.998,8.466,25.055,11.257v69.206
			c-9.131,15.278-33.243,48.333-56.224,53.775c-0.905-3.336-2.475-7.312-5.192-11.297c-4.96-7.273-14.729-15.782-33.584-17.585
			V177.5h-15v32.858c-25.073,2.424-35.609,16.959-38.836,28.862c-22.962-5.486-47.041-38.496-56.164-53.761V116.253z
			 M141.227,216.157c-0.141-1.004-0.254-2.041-0.371-3.073C155.13,231.561,178.052,255,202.5,255l7.422-0.061l0.078-7.421
			c0.024-2.305,1.141-22.518,32.5-22.518s32.476,20.213,32.5,22.5v7.5h7.5c24.447,0,47.37-23.438,61.644-41.915
			c-0.117,1.037-0.231,2.079-0.373,3.089c-5.158,37.347-25.102,67.55-54.733,82.874C275.075,306.315,259.418,310,242.5,310
			c-16.918,0-32.575-3.685-46.555-10.962C166.331,283.724,146.388,253.521,141.227,216.157z M285,317.299v16.861l-42.5,38.25
			L200,334.16v-16.862c13.182,5.108,27.424,7.702,42.5,7.702C257.579,325,271.824,322.405,285,317.299z M425,470L425,470H60v-17.362
			c0.048-0.88,0.904-12.937,11.582-28.015c18.801-26.55,52.912-41.836,78.217-49.984c0,0,28.91-15.122,42.833-26.93L235,385.84
			v46.66h15v-46.66l42.368-38.131c13.923,11.808,42.868,26.94,42.868,26.94c25.456,8.064,59.721,23.256,78.396,49.835
			c10.718,15.254,11.344,27.458,11.368,28.096V470z"/>
	</g>
</g>
<g>
</g>
<g>
</g>
<g>
</g>
<g>
</g>
<g>
</g>
<g>
</g>
<g>
</g>
<g>
</g>
<g>
</g>
<g>
</g>
<g>
</g>
<g>
</g>
<g>
</g>
<g>
</g>
<g>
</g>
</svg>
