<?xml version="1.0" encoding="iso-8859-1"?>
<!-- Generator: Adobe Illustrator 19.0.0, SVG Export Plug-In . SVG Version: 6.00 Build 0)  -->
<svg version="1.1" id="Layer_1" xmlns="http://www.w3.org/2000/svg" xmlns:xlink="http://www.w3.org/1999/xlink" x="0px" y="0px"
	 viewBox="0 0 485 485" style="enable-background:new 0 0 485 485;" xml:space="preserve">
<g>
	<g>
		<g>
			<path d="M365.521,370.035c-8.129-3.576-16.577-6.766-25.124-9.485c-8.935-4.707-30.923-17.168-40.396-26.108v-24.299
				c30.386-17.373,51.164-48.543,57.804-86.696C375.018,218.517,390,202.361,390,187.5c0-15.043-11.308-25.026-30-27.094V96.863
				l-0.107-0.628c-0.169-0.986-4.321-24.42-20.764-48.022C323.806,26.218,294.604,0,242.5,0s-81.306,26.218-96.629,48.213
				c-16.442,23.602-20.595,47.036-20.764,48.022L125,96.863v63.543c-18.692,2.068-30,12.051-30,27.094
				c0,14.861,14.982,31.017,32.196,35.946c6.646,38.168,27.428,69.337,57.804,86.697v24.299
				c-9.484,8.951-31.514,21.431-40.429,26.125c-8.754,2.875-17.194,6.094-25.134,9.587C46.613,402.73,45.032,450.37,45,452.382V485
				h395v-32.534C439.991,450.438,438.934,402.43,365.521,370.035z M360,197.5v-22.018c13.367,1.874,15,8.786,15,12.018
				c0,6.126-6.627,14.467-15.266,19.07C359.899,203.606,360,200.588,360,197.5z M110,187.5c0-3.232,1.633-10.144,15-12.018V197.5
				c0,3.088,0.101,6.107,0.266,9.07C116.627,201.967,110,193.626,110,187.5z M115,470H60v-17.366
				c0.041-0.775,0.717-10.543,8.533-23.386C79.794,410.747,98.498,397.63,115,388.969V470z M158.179,56.787
				C177.496,29.059,205.866,15,242.5,15c36.426,0,64.689,13.908,84.006,41.337c8.913,12.657,13.839,25.477,16.347,33.663H312.5
				c-20.43,0-30.222,5.881-38.861,11.07c-7.978,4.792-14.868,8.93-31.139,8.93s-23.161-4.138-31.139-8.93
				C202.722,95.881,192.93,90,172.5,90h-30.371C144.591,81.939,149.416,69.366,158.179,56.787z M141.227,216.157
				c-0.813-5.793-1.227-12.07-1.227-18.657V105h32.5c16.271,0,23.161,4.138,31.139,8.93c8.64,5.189,18.432,11.07,38.861,11.07
				c20.429,0,30.222-5.881,38.861-11.07c7.978-4.792,14.868-8.93,31.139-8.93H345v92.5c0,6.586-0.413,12.863-1.229,18.674
				c-5.158,37.347-25.102,67.55-54.733,82.874C275.075,306.315,259.418,310,242.5,310c-16.918,0-32.575-3.685-46.555-10.962
				C166.331,283.724,146.388,253.521,141.227,216.157z M285,317.299v17.312C279.87,339.974,263.614,355,242.5,355
				c-20.977,0-37.346-15.055-42.5-20.404v-17.298c13.182,5.108,27.424,7.702,42.5,7.702C257.579,325,271.824,322.405,285,317.299z
				 M185.505,470c3.688-28.172,27.832-50,56.995-50c29.163,0,53.306,21.828,56.995,50H185.505z M355,470h-40.387
				c-3.765-36.466-34.668-65-72.113-65s-68.347,28.534-72.113,65H130v-88.035c6.324-2.63,12.961-5.096,19.825-7.335l0.593-0.193
				l0.553-0.289c3.112-1.624,27.288-14.39,41.275-26.109C200.892,356.18,219.027,370,242.5,370s41.608-13.82,50.254-21.96
				c13.987,11.719,38.163,24.485,41.275,26.109l0.586,0.306l0.63,0.198c6.691,2.109,13.311,4.539,19.755,7.215V470z M425,470h-55
				v-81.196c16.637,8.626,35.449,21.721,46.642,40.288c8.042,13.342,8.356,23.407,8.358,23.408V470z"/>
			<path d="M242.5,235h20v-15H250v-32.5h-15v40C235,231.642,238.357,235,242.5,235z"/>
		</g>
	</g>
</g>
<g>
</g>
<g>
</g>
<g>
</g>
<g>
</g>
<g>
</g>
<g>
</g>
<g>
</g>
<g>
</g>
<g>
</g>
<g>
</g>
<g>
</g>
<g>
</g>
<g>
</g>
<g>
</g>
<g>
</g>
</svg>
